Spy Kids 4 2011 TS Xvid - UnKnOwN

Encoded By .......: UnKnOwN
Runtime ..........: 1:22
IMDb URL .........: http://www.imdb.com/title/tt1517489/
Language .........: English
File Size ........: 940mb
Release Date ......... 2011
Source ......... Russian/Choice
File Type ......... Single AVI
PS3 Compatible ....... Go for It
Genre ......... Comedy/Kids

Video
ID : 0
Format : MPEG-4 Visual
Format profile : Advanced Simple@L5
Format settings, BVOP : Yes
Format settings, QPel : No
Format settings, GMC : No warppoints
Format settings, Matrix : Custom
Codec ID : XVID
Codec ID/Hint : XviD
Duration : 1h 22mn
Bit rate : 1 398 Kbps
Width : 660pixels
Height : 332pixels
Display aspect ratio : 1.988
Frame rate : 25.000fps
Color space : YUV
Chroma subsampling : 4:2:0
Bit depth : 8 bits
Scan type : Progressive
Bits/(Pixel*Frame) : 0.234
Stream size : 892 MiB (86%)
Writing library : XviD 1.2.1 (UTC 2008-12-04)

Audio
ID : 1
Format : AC3
Format/Info : Version 1
Mode extension : MPEG
Codec ID : 2000
Duration : 1h 22mn
Bit rate mode : Constant
Bit rate : 128Kbps
Channel(s) : 2channels
Channel positions : Front: L R
Sampling rate : 44.0 KHz
Bit depth : 16 bits
Stream size : 302 MiB
Alignment : Aligned on interleaves
Interleave, duration : 42 ms (1.00 video frame)
Interleave, preload duration : 512 ms

SYSPNOSIS
A retired spy is called back into action, and to bond with her new
step-children, she invites them along for the adventure to stop the evil
Timekeeper from taking over the world.
a

RELEASE INFO

Fixed all the colors effects of 3d,denoiser,cm,bla bla look at screen
comparisons,audio is okay not the best removed hiss and muxed back
watchable cam sample included
